<svg version="1.1" id="Layer_1" xmlns="http://www.w3.org/2000/svg" xmlns:xlink="http://www.w3.org/1999/xlink" x="0px" y="0px"
	 viewBox="0 0 1263.3 159.6" style="enable-background:new 0 0 1263.3 159.6;" xml:space="preserve">
	<style type="text/css">
		.st0{fill:#FFFFFF;}
	</style>
	<g>
		<g>
			<path class="st0" d="M1233.6,45c0-8.7,6.5-15.1,14.8-15.1s14.8,6.4,14.8,15.1s-6.5,15.1-14.8,15.1S1233.6,53.7,1233.6,45z
				 M1260.9,45c0-7.5-5.3-13-12.5-13s-12.5,5.5-12.5,13c0,7.5,5.3,13,12.5,13S1260.9,52.5,1260.9,45z M1242.6,37h7.4c3,0,5,1.8,5,4.4
				c0,1.9-0.9,3.3-3,3.9v0.1c1.6,0.5,2.2,1.4,2.4,3.5c0.2,2.4,0.3,3.7,0.7,3.9V53h-2.7c-0.4-0.2-0.5-1.6-0.6-3.7
				c-0.1-2-1.1-2.9-3.2-2.9h-3.4V53h-2.7L1242.6,37L1242.6,37z M1245.4,44.3h4c1.9,0,2.9-1,2.9-2.5c0-1.6-0.9-2.5-2.9-2.5h-4.1V44.3z
				"/>
		</g>
		<g>
			<path class="st0" d="M87.7,53v103.5H69.1v-16.8C50.7,168.3,0,168,0,117.8V53h18.6v64.8c0,41,50.5,30.6,50.5-1.5V53H87.7z"/>
			<path class="st0" d="M192.2,91.7v64.8h-18.6V91.7c0-41-51.1-30.6-51.1,1.5v63.3h-18.6V53h18.6v16.1
			C141.8,41.2,192.2,41.8,192.2,91.7z"/>
			<path class="st0" d="M203.2,124.2h18.6c0,11.8,11.4,18.4,24.8,18.4c13.9,0,24.8-6.4,24.8-18.4c0-23.8-67-1.9-67-43.2
			c0-18.6,18.6-29.6,40.3-29.6c21.9,0,39.9,10.3,39.9,29.6h-17.2c0-10.1-10.1-15.3-22.8-15.3S222,71,222,80.9
			c0,23.8,68.1,0.6,68.1,43.2c0,20.3-18.6,34.1-43.5,34.1C221.8,158.3,203.2,146.3,203.2,124.2z"/>
			<path class="st0" d="M348.7,143c19.5,0,29.8-11,33.7-20.3l14.3,6.8c-6,12.8-21.1,28.3-48,28.3c-29.6,0-50.7-21.9-50.7-53.6
			c0-31,21.1-53,50.7-53c29.4,0,53.8,22.1,49.7,61.2H316C318.7,130,330.1,143,348.7,143z M382.2,96.6c-2.7-19.2-16.6-30.4-33.5-30.4
			c-18.8,0-30.2,13-32.7,30.4H382.2z"/>
			<path class="st0" d="M459.4,143c19.4,0,29.8-11,33.7-20.3l14.3,6.8c-6,12.8-21.1,28.3-48,28.3c-29.6,0-50.7-21.9-50.7-53.6
			c0-31,21.1-53,50.7-53c29.4,0,53.8,22.1,49.7,61.2h-82.4C429.4,130,440.8,143,459.4,143z M492.9,96.6
			c-2.7-19.2-16.6-30.4-33.5-30.4c-18.8,0-30.2,13-32.7,30.4H492.9z"/>
			<path class="st0" d="M609.8,91.7v64.8h-18.6V91.7c0-41-51.1-30.6-51.1,1.5v63.3h-18.6V53h18.6v16.1
			C559.3,41.2,609.8,41.8,609.8,91.7z"/>
		</g>
		<g>
			<path class="st0" d="M726.6,136c-0.8-23.2-74.1-21.9-76.6-53.2c-2.9-31.5,36.4-41.2,82.2-25v31H731c-2.5-17.2-14.9-38.7-49.7-35.2
			c-8.1,1-23.2,3.5-21.7,17c2.1,26.9,75.7,19.7,78,53.2c0.8,12-6.4,21.9-9.7,25c-16.1,14.7-44.5,10.8-74.5,6.6l-0.4-42.2l1.2,0.4
			C654.2,166.4,726.6,166.8,726.6,136z"/>
			<path class="st0" d="M760.3,130.2V65h-13.4l30.2-37v25h42.8l-10.3,12h-32.5l-0.6,71.2c-0.2,25.2,35,21.9,55.5-10.3h1.9
			C808.8,171.6,760.3,164.9,760.3,130.2z"/>
			<path class="st0" d="M842.5,117.3L842.3,53h17.2v60.6c0,38.3,38.3,57.3,63.4,15.7v-4.5l0.4-71.8H940v72c0,20.9,4.6,30,12.4,31.7
			c-24.2,0-28.8-9.5-29.6-23.8C896.5,178.2,842.7,158.9,842.5,117.3z"/>
			<path class="st0" d="M1047,59.2l0.6-44.1L1063.7,0v125c0,19.9,4.6,29.8,12.4,31.5c-20.7,0-28.3-8.3-29.6-18.2
			c-8.3,11.6-21.7,20.5-41.6,20.5c-35.8,0-54.2-39.5-44.3-67.9C968.5,68.1,999.6,32.9,1047,59.2z M1018.2,149.8
			c12.8,0,21.3-6,28.1-15.3v-1.7L1047,78c-17.2-19.5-48-30.8-65.8-8.1C961.1,92.7,977,149.8,1018.2,149.8z"/>
			<path class="st0" d="M1098.5,11.4c6,0,11,5,11,11s-5,10.8-11,10.8s-10.8-4.8-10.8-10.8S1092.5,11.4,1098.5,11.4z M1107.4,156.5
			h-18.6l0.8-12.4V53h17v91L1107.4,156.5z"/>
			<path class="st0" d="M1238.6,106c-0.4,29.8-28.3,53.6-57.7,53.6c-29,0-56.3-23.8-55.7-53.6c0.2-29.4,28.6-55,57.7-55
			C1212.1,50.9,1239,76.6,1238.6,106z M1219.6,106c-0.8-36.2-21.3-51.7-41.4-51.7c-20.3,0-37.2,18-34.6,51.7
			c2.3,31.7,21.3,49.5,41.4,49.5C1205.5,155.4,1219.8,139.7,1219.6,106z"/>
		</g>
	</g>
</svg>
